<svg xmlns="http://www.w3.org/2000/svg" viewBox="0 0 54.821 54.825">
    <path d="M8.976,47.722a27.975,27.975,0,0,1-5.894-7.777A26.445,26.445,0,0,1,.134,29.213,27.22,27.22,0,0,1,7.208,8.994,27.013,27.013,0,0,1,22.641.466,26.39,26.39,0,0,1,25.748.092,27.3,27.3,0,0,1,52.916,37.531,26.712,26.712,0,0,1,39.9,51.85,26.374,26.374,0,0,1,29.179,54.8q-.941.064-1.855.064A27.045,27.045,0,0,1,8.976,47.722ZM26.019,2.138a27.192,27.192,0,0,0-2.95.321,25.257,25.257,0,0,0-20.9,26.491,24.8,24.8,0,0,0,2.683,9.977A25.369,25.369,0,0,0,38.876,50.08a24.783,24.783,0,0,0,12.11-13.193,25.149,25.149,0,0,0-.856-20.868A25.6,25.6,0,0,0,27.617,2.081q-.785.006-1.6.057Zm3,48.108V47.668h-2.2c-.041.5-.061,1.878-.054,2.574H25.7V44.664h1.126a19.866,19.866,0,0,0-.054,2.252,7.034,7.034,0,0,0,1.38.054c.3-.006.594-.013.87,0V44.664h1.126v5.578Zm3.751-5.632c.866-.26,3.182-1.633,4.286-.7A1.357,1.357,0,0,1,37,45.9a1.337,1.337,0,0,1,1.554,1.393c-.019,1.621-2.758,2-3.912,2.521-.593-1.766-1.2-3.517-1.876-5.2Zm2.089,2.413c.156.612.4,1.141.583,1.717.684-.331,1.828-.4,1.983-1.127a1.024,1.024,0,0,0-.257-.92.832.832,0,0,0-.538-.167,8.457,8.457,0,0,0-1.773.492Zm-.8-2.091a14.652,14.652,0,0,1,.534,1.4c.7-.3,1.84-.35,1.875-1.18.026-.542-.323-.726-.775-.726a3.552,3.552,0,0,0-1.635.5ZM16.747,48.47a3.086,3.086,0,0,1,.16-.7c1.434-1.014,2.852-2.044,4.288-3.057-.918-.332-1.948-.553-2.894-.856.012-.275.142-.432.162-.7,1.4.338,2.683.782,4.072,1.126a3.936,3.936,0,0,0-.162.645c-1.406,1.058-2.884,2.046-4.287,3.11a32.9,32.9,0,0,0,3.217.912c.007.311-.142.467-.162.751C19.663,49.306,18.234,48.859,16.747,48.47Zm23.737-5.149c-.6-.233.012-.675.374-1.072.32-.35.6-.639.751-.8-.95-2.509.43-5.059.912-7.187a11.8,11.8,0,0,1,.534,6.007,13.386,13.386,0,0,1,5.573-2.36c-1.422,1.8-2.44,3.748-5.3,3.966a2.848,2.848,0,0,1-.447-.017,1.958,1.958,0,0,0-.679.018c-.388.107-.94.867-1.283,1.18-.091.083-.178.3-.327.3a.2.2,0,0,1-.106-.03Zm-27.22-1.446c-3.74.258-4.982-1.983-6.483-3.966a12.437,12.437,0,0,1,5.57,2.413,13.181,13.181,0,0,1,.483-6.116c.562,2.051,1.849,4.79.965,7.187a5.461,5.461,0,0,0,.751.859c.259.283,1.02.866.374,1.072a.233.233,0,0,1-.071.011c-.456,0-1.117-1.274-1.589-1.459Zm3.8-3.646A15.024,15.024,0,0,1,13.692,21.6a14.444,14.444,0,0,1,7.343-7.67,14.987,14.987,0,0,1,17.2,23.972A14.277,14.277,0,0,1,36.2,39.623a14.9,14.9,0,0,1-8.414,2.788q-.257.008-.509.008a14.593,14.593,0,0,1-10.208-4.19Zm3.322-.645c.422.175.456.771.965.911a9.947,9.947,0,0,0,2.036,0h2.091v-.964c-.642.013-1.3.006-1.964,0-.393,0-.786-.009-1.175-.009-.672,0-1.33.013-1.953.062Zm9.058.911h4.178a2.668,2.668,0,0,0,.482-.482c.117-.122.5-.448.322-.482H29.448Zm3.966-1.983a10.707,10.707,0,0,0,2.034,0c.21-.058.35-.3.539-.483.117-.117.558-.369.321-.482H18.514c.322.35.548.85,1.018.965a11.492,11.492,0,0,0,1.983,0Zm-2.732-1.983h4.982a8.789,8.789,0,0,0,1.661,0c.2-.056.35-.3.537-.483.149-.149.546-.377.374-.483h-7.5c-.126.215-.019.66-.054.965Zm-14.095-.912c.387.195.572.791,1.073.912a8.969,8.969,0,0,0,1.607,0H24.25v-.966c-.967.013-1.954.006-2.941,0-.576,0-1.154-.008-1.726-.008-1.022,0-2.027.012-3,.061Zm-.75-1.771c-.065.107-.365.35-.161.377H39.307c-1.312-2.192-2.87-4.6-4.342-6.811-.944,1.516-1.882,3.05-2.893,4.5-1.563-1.813-3.022-3.733-4.606-5.523-1.606,1.789-3.027,3.764-4.666,5.523-.962-1.5-1.889-3.049-2.9-4.506-1.292,2.1-2.8,4.351-4.069,6.434ZM26.769,13.182a5.01,5.01,0,0,0-2.626,8.737,5.206,5.206,0,0,0,3.322,1.233A5.046,5.046,0,0,0,32.5,18.119a5.282,5.282,0,0,0-1.18-3.165,4.748,4.748,0,0,0-3.827-1.812,6.332,6.332,0,0,0-.728.041Zm17.092,25.26q.571-1.1,1.232-2.145a5.7,5.7,0,0,1-.912-3.383,16.177,16.177,0,0,0,.219-2.781,6.974,6.974,0,0,1,1.55,5.249c1.267-1.13,2.45-2.887,4.666-3.266a10.334,10.334,0,0,1-1.446,2.842,4.282,4.282,0,0,1-3.429,1.61,23.41,23.41,0,0,0-1.34,2.089c-.246-.008-.266-.241-.539-.215ZM9.727,36.565a3.87,3.87,0,0,1-2.628-.8,7.275,7.275,0,0,1-2.3-3.644c2.238.422,3.292,2.031,4.666,3.324a7.3,7.3,0,0,1,1.494-5.307c.21,2.186.54,4.742-.643,6.115.262.551.647,1.1.965,1.662a1.2,1.2,0,0,1,.216.535.959.959,0,0,0-.43.216q-.72-1.015-1.339-2.1ZM47.262,33a.626.626,0,0,0-.24-.03c.1-.737.147-1.535.268-2.252-1.665-.908-1.983-3.163-2.683-5.042,1.663.715,2.455,2.3,3.162,3.966.724-1.707,1.4-3.459,2.894-4.4.285,2.86-.792,4.821-2.84,5.524-.085.755-.181,1.5-.267,2.252a.6.6,0,0,1-.1.009.715.715,0,0,1-.194-.03Zm-39.411.023c-.1-.724-.181-1.465-.267-2.2C5.537,30.052,4.57,28.194,4.638,25.3c-.01-.045.022-.05.055-.054,1.507.923,2.231,2.628,2.892,4.4a4.3,4.3,0,0,0,.59-1.233A5.471,5.471,0,0,1,10.8,25.677c-.707,1.866-1.013,4.133-2.683,5.042.108.73.156,1.522.267,2.252a.617.617,0,0,0-.239.03.715.715,0,0,1-.195.031.6.6,0,0,1-.1-.007Zm39.707-6.168V24.5a6.341,6.341,0,0,1-3-1.822c-.365-.467-.624-1.085-1.017-1.556-.07-.085-.455-.267-.268-.376a7.145,7.145,0,0,1,4.234,2.74c.063-2.082.258-4.031,1.283-5.15.048-.008.05.02.054.055a15.823,15.823,0,0,1,.642,2.359A4.588,4.588,0,0,1,48.093,24.4v2.412c-.147.012-.259.062-.419.062a.8.8,0,0,1-.115-.013ZM7.315,26.805c-.174-.688.233-1.621,0-2.36-.09-.3-.5-.488-.642-.7a4.932,4.932,0,0,1-.75-3.11,23.246,23.246,0,0,1,.643-2.307c1.1,1.05,1.24,3.05,1.339,5.1a7.449,7.449,0,0,1,4.234-2.683c.156.077-.147.288-.268.429s-.308.316-.428.483c-.262.359-.425.8-.7,1.127A5.508,5.508,0,0,1,7.85,24.443v2.412a.806.806,0,0,1-.117.009,3.844,3.844,0,0,1-.419-.061Zm38.314-8.153c-2.318.148-3.838-1.553-4.928-2.788a8.2,8.2,0,0,1,4.609,1.663c.063-1.619-.719-3.775.374-4.882.045-.009.05.022.054.056a8.585,8.585,0,0,1,1.178,2.787,4.123,4.123,0,0,1-.751,2.95c.146.712.42,1.3.537,2.038a.829.829,0,0,0-.428.162,14.318,14.318,0,0,1-.644-1.987ZM8.707,20.476a15.448,15.448,0,0,1,.534-1.983,4.447,4.447,0,0,1-.751-3.058,10.067,10.067,0,0,1,1.178-2.789c1.116.982.435,3.254.376,4.882,1.366-.726,2.51-1.673,4.61-1.663.166.117-.185.245-.322.374-.421.4-.838.979-1.338,1.4a4.666,4.666,0,0,1-3.217.965q-.285,1.029-.583,2.039a2.872,2.872,0,0,0-.486-.166Zm34.185-6.811a6.459,6.459,0,0,1-.8.216c-2.017.218-3.228-.724-4.549-1.283,1.1-.978,3.5-.414,4.77,0-.383-1.271-1.831-2.706-1.179-4.666,1.283,1.05,3.05,2.99,2.2,5.366.282.59.744,1.007,1.017,1.61a2.566,2.566,0,0,0-.374.267,9.615,9.615,0,0,1-1.077-1.509ZM11.013,14.9c.356-.521.708-1.05,1.072-1.556a2.99,2.99,0,0,1-.215-.643c-.32-2.4,1.274-3.646,2.356-4.774.048-.01.052.021.057.055.594,1.936-.709,3.266-1.233,4.612,1.283-.371,3.681-1.015,4.77,0-1.36.67-3.231,1.842-5.249,1.072-.454.441-.659,1.129-1.178,1.5a.773.773,0,0,0-.38-.267Zm27.275-4.56a5.324,5.324,0,0,1-3.106.59c-.8-.089-1.6-.608-2.3-.644.848-1.05,2.811-1.094,4.61-.911-.583-1.3-2.318-2.182-2.039-4.345,1.621,1.027,3.476,2.1,3.217,4.828.371.486,1.05.951,1.283,1.393-.084.117-.194.2-.268.322a11.631,11.631,0,0,1-1.392-1.233Zm-22.88.911a16.305,16.305,0,0,1,1.339-1.34C16.44,7.136,18.326,6.1,19.908,5.03c.427,1.791-1.368,3.278-2.089,4.345,1.84-.184,3.768-.132,4.714.857-.638.1-1.458.6-2.249.7a5.057,5.057,0,0,1-3.111-.59c-.553.339-.9.887-1.445,1.234a1.093,1.093,0,0,0-.321-.324Zm13.342-4.5A9.086,9.086,0,0,1,32.124,6a3.7,3.7,0,0,1,3.383,2.2c-.632.054-1.266.085-1.88.085-2.112,0-4-.373-4.877-1.533ZM19.9,8.194A3.93,3.93,0,0,1,24.138,6a25.215,25.215,0,0,1,2.566.75c-1.022,1.178-2.822,1.53-4.888,1.53-.61,0-1.254-.031-1.912-.082Z" transform="translate(-.071 -.038)" fill="#3377ff" />
</svg>
